<?xml version="1.0" encoding="UTF-8" standalone="no"?>
<!-- Created with Inkscape (http://www.inkscape.org/) -->

<svg
   version="1.1"
   id="svg1"
   width="1377"
   height="433"
   viewBox="0 0 1377 433"
   sodipodi:docname="subitoLogoInk.svg"
   xml:space="preserve"
   inkscape:export-filename="subitoLogo.png"
   inkscape:export-xdpi="150"
   inkscape:export-ydpi="150"
   inkscape:version="1.3.2 (091e20e, 2023-11-25, custom)"
   xmlns:inkscape="http://www.inkscape.org/namespaces/inkscape"
   xmlns:sodipodi="http://sodipodi.sourceforge.net/DTD/sodipodi-0.dtd"
   xmlns="http://www.w3.org/2000/svg"
   xmlns:svg="http://www.w3.org/2000/svg"><defs
     id="defs1" /><sodipodi:namedview
     id="namedview1"
     pagecolor="#ffffff"
     bordercolor="#000000"
     borderopacity="0.25"
     inkscape:showpageshadow="2"
     inkscape:pageopacity="0.0"
     inkscape:pagecheckerboard="0"
     inkscape:deskcolor="#d1d1d1"
     inkscape:zoom="1.0491061"
     inkscape:cx="390.8089"
     inkscape:cy="237.82151"
     inkscape:window-width="2560"
     inkscape:window-height="1387"
     inkscape:window-x="-8"
     inkscape:window-y="-8"
     inkscape:window-maximized="1"
     inkscape:current-layer="g1" /><g
     inkscape:groupmode="layer"
     inkscape:label="Image"
     id="g1"><path
       style="fill:#1c85a2;fill-opacity:1"
       d="m 306.2,285.8 c -1.74471,-1.74471 -1.63752,-21.192 0.12487,-22.65465 0.92287,-0.76592 19.71287,-1.18235 61.92732,-1.37245 59.6892,-0.26879 60.64499,-0.30439 63.42513,-2.36283 1.55247,-1.14947 3.43483,-3.33933 4.18301,-4.86636 1.68442,-3.43786 2.30467,-9.3237 1.06338,-10.09086 C 436.41567,244.13886 436,243.20138 436,242.36955 c 0,-1.90766 -1.75523,-3.67449 -5.65248,-5.68984 -2.63187,-1.36099 -9.61511,-1.62117 -50.45111,-1.87968 L 332.5,234.5 l -6.53034,-3.08768 c -3.59168,-1.69823 -8.23059,-4.58053 -10.30868,-6.40512 C 312.04593,221.83314 305.28623,213 306.47228,213 c 0.3126,0 -0.34992,-1.8 -1.47228,-4 -1.12236,-2.2 -1.8646,-4 -1.64943,-4 0.21517,0 0.004,-2.07457 -0.47005,-4.61015 -0.97886,-5.23958 0.87298,-16.0787 3.67165,-21.49073 4.17972,-8.08269 15.52269,-17.30375 24.08596,-19.58024 1.57403,-0.41845 30.95413,-0.89638 65.28912,-1.06207 49.68413,-0.23977 62.5973,-0.0416 63.26032,0.97096 0.45819,0.69973 0.77443,5.8978 0.70275,11.55127 -0.11188,8.82378 -0.38718,10.4165 -1.94458,11.25 C 456.83006,182.62613 432.958,183 395.94809,183 h -60.18338 l -3.88236,3.88235 c -3.66365,3.66365 -3.88235,4.22698 -3.88235,10 0,3.41177 0.44231,6.11765 1,6.11765 0.55,0 1,0.66585 1,1.47968 0,0.81382 1.76515,2.38019 3.92256,3.48082 3.74564,1.91088 5.96705,2.00448 49.25,2.07525 55.59587,0.0909 55.73095,0.11429 67.36745,11.66267 8.32621,8.26316 11.68762,16.52285 11.39413,27.99778 -0.10978,4.29209 -0.53123,8.2538 -0.93655,8.8038 -0.40532,0.55 -1.28261,2.69392 -1.94953,4.76427 -2.8426,8.8244 -13.38721,18.13686 -24.79977,21.90189 C 429.10377,286.86335 424.17048,287 368.04477,287 322.20995,287 307.10695,286.70695 306.2,285.8 Z m 231.8,0.57967 c -5.45437,-0.88359 -10.7842,-2.67141 -16.70619,-5.60385 -7.55239,-3.73978 -15.90249,-10.98194 -14.77166,-12.81166 0.54973,-0.88947 0.38771,-1.02648 -0.53758,-0.45462 -0.96971,0.59931 -1.14808,0.35895 -0.66596,-0.89743 0.36216,-0.94379 0.24805,-1.46232 -0.2536,-1.15229 -1.37053,0.84704 -4.81549,-4.53878 -7.78264,-12.16732 l -2.64198,-6.7925 -0.39595,-42.80626 c -0.29863,-32.28468 -0.10144,-43.16112 0.80225,-44.25 0.9092,-1.09552 3.80757,-1.44374 12.01674,-1.44374 5.95019,0 11.06112,0.39251 11.35762,0.87226 0.2965,0.47974 0.56808,19.71724 0.60352,42.75 l 0.0644,41.87774 2.70549,5.20235 c 2.64378,5.08367 7.51334,9.43225 13.5238,12.07693 2.1234,0.93432 12.72589,1.17605 43,0.9804 42.39198,-0.27396 40.07206,-0.04 47.47623,-4.78822 1.262,-0.8093 3.70164,-3.65608 5.42144,-6.32616 2.65193,-4.1173 3.19615,-6.05098 3.58281,-12.73032 0.31611,-5.46057 0.80017,-7.66946 1.57857,-7.20333 0.79454,0.47579 0.78717,0.25084 -0.0253,-0.76969 -1.57102,-1.97347 -1.91056,-67.02994 -0.36492,-69.91801 C 636.96247,158.20161 638.05484,158 646.9534,158 c 5.43566,0 10.59483,0.27314 11.46481,0.60699 1.40751,0.54011 1.58179,5.21724 1.58179,42.45121 0,43.51 -0.20024,46.03145 -4.50212,56.6918 -0.94327,2.3375 -2.00633,4.25 -2.36235,4.25 -0.35602,0 -1.20032,1.2375 -1.87623,2.75 -3.18401,7.12493 -18.82945,19.11868 -23.38548,17.92725 -1.03212,-0.2699 -1.63944,-0.10703 -1.3496,0.36194 0.28984,0.46896 -1.17204,1.41262 -3.24862,2.09702 -2.70781,0.89243 -14.94671,1.30149 -43.2756,1.4464 -21.725,0.11113 -40.625,0.0198 -42,-0.20294 z m 159.57143,-0.9511 C 696.20054,284.05769 696,279.22185 696,247.53556 c 0,-32.19804 0.17958,-36.39049 1.58179,-36.92857 C 698.45177,210.27314 724.99266,210 756.56155,210 c 49.94475,0 57.91001,-0.20487 61.34117,-1.57775 8.46342,-3.38639 9.88032,-15.89351 2.5315,-22.34586 L 816.93041,183 h -58.89378 c -52.20646,0 -59.07221,-0.17843 -60.4652,-1.57143 C 696.36702,180.22417 696,177.6741 696,170.51036 c 0,-5.14073 0.27314,-10.05859 0.60699,-10.92857 0.54411,-1.41794 6.78938,-1.58179 60.2899,-1.58179 72.30565,0 69.74103,-0.36799 81.91893,11.75431 2.93769,2.92427 6.51664,7.85365 8,11.01862 2.37819,5.0742 2.68418,6.92404 2.68418,16.22707 0,10.41667 -0.0317,10.55556 -4,17.5 -3.52877,6.17535 -5.45313,12.2071 -3.51174,11.00726 0.98745,-0.61028 4.81595,6.53115 6.53013,12.18087 6.31575,20.81597 -6.07065,42.11302 -27.86858,47.91694 -4.07931,1.08616 -17.24352,1.37366 -63.32838,1.38306 -51.56662,0.0105 -58.35716,-0.16672 -59.75,-1.55956 z m 121.11263,-25.43916 c 4.12837,-1.52662 7.75211,-8.68543 6.75626,-13.34719 -1.07339,-5.0247 -3.51708,-8.37427 -7.36192,-10.09098 -3.14353,-1.40358 -9.2901,-1.56454 -50.5784,-1.32449 l -47,0.27325 -0.27896,13.23999 -0.27895,13.24 46.27895,0.26 c 25.45343,0.14301 46.95396,-0.0399 47.77896,-0.40658 0.825,-0.36662 2.93283,-1.19642 4.68406,-1.844 z m 68.42681,25.64418 c -0.81924,-0.98712 -1.12335,-18.47117 -1.0956,-62.98815 0.0211,-33.89196 0.30347,-62.31248 0.62742,-63.15669 0.48567,-1.26563 2.58648,-1.51412 11.97316,-1.41623 L 910,158.19123 l 0.10398,3.15439 c 0.44561,13.51886 -0.0581,123.77119 -0.5693,124.59826 -1.02524,1.65888 -21.01915,1.38222 -22.42381,-0.31029 z m 119.02813,0.0339 c -0.7741,-0.93283 -1.1212,-16.52866 -1.1571,-52 L 1004.9305,183 h -31.93004 c -30.54489,0 -31.975,-0.0839 -32.96528,-1.93426 C 939.46583,180.0019 939,174.61047 939,169.08479 c 0,-9.59079 0.1021,-10.07139 2.25,-10.59116 1.2375,-0.29947 36.225,-0.42054 77.75,-0.26906 l 75.5,0.27543 0.285,10.25037 c 0.1654,5.94786 -0.1642,11.08969 -0.7852,12.25 -1.0352,1.93424 -2.0955,1.99963 -32.428,1.99963 -26.8265,0 -31.4403,0.21483 -31.9283,1.4867 -0.3138,0.81769 -0.5949,23.3621 -0.6246,50.09868 -0.034,30.94887 -0.4239,49.30282 -1.0717,50.5133 -0.8942,1.67072 -2.2113,1.90132 -10.8599,1.90132 -6.9788,0 -10.1641,-0.38767 -10.9483,-1.33246 z M 1157,285.92931 c -13.7588,-2.76605 -27.5254,-12.52136 -34.5873,-24.50922 -5.7595,-9.77708 -6.6946,-14.46948 -7.1577,-35.92009 -0.3474,-16.08985 -0.1183,-21.2708 1.172,-26.5 0.8821,-3.575 1.7927,-7.27004 2.0235,-8.21121 0.9596,-3.91231 6.3472,-11.65661 11.852,-17.03607 6.428,-6.28173 11.6888,-10.35583 11.7128,-9.07081 0.01,0.44995 0.3459,0.34464 0.75,-0.23401 1.3146,-1.88248 7.5924,-4.27855 14.2347,-5.43297 4.3023,-0.74773 19.5173,-1.02552 45,-0.82161 36.5288,0.29231 38.7902,0.4179 44.1679,2.45282 8.9694,3.39408 18.4889,10.63829 24.8342,18.89845 1.9017,2.47565 5.5792,10.66405 5.2479,11.68506 -0.1375,0.42369 0.1415,0.77035 0.62,0.77035 2.4479,0 3.63,10.09527 3.63,31 0,20.75789 -0.368,24.08975 -3.479,31.5 -0.4618,1.1 -1.1231,2.675 -1.4695,3.5 -2.4369,5.80302 -11.29,15.72831 -18.0515,20.23762 -5.2486,3.50038 -15.8554,8.15622 -14.8785,6.53094 0.4584,-0.7627 0.027,-0.67042 -1.0818,0.23144 -1.561,1.26963 -7.849,1.52565 -40.942,1.667 -21.5037,0.0918 -41.1227,-0.24012 -43.5977,-0.73769 z m 83.7968,-26.55639 c 2.5868,-1.39434 6.5978,-4.58792 8.9134,-7.09683 5.7838,-6.26649 6.5829,-10.54751 6.1183,-32.77609 -0.3095,-14.80615 -0.6898,-18.58188 -2.1433,-21.27937 -0.9718,-1.80365 -1.4901,-3.7273 -1.1517,-4.27477 0.3383,-0.54748 0.2442,-0.87216 -0.2092,-0.72151 -0.4534,0.15064 -2.3161,-1.15242 -4.1394,-2.8957 -1.8233,-1.74328 -5.3059,-4.10538 -7.7391,-5.24912 -4.2324,-1.98946 -6.0349,-2.07953 -41.6139,-2.07953 -39.0972,0 -41.3058,0.21612 -47.4396,4.6422 -2.0491,1.47862 -3.4967,1.92148 -4.25,1.30013 -0.7808,-0.64414 -0.8544,-0.59119 -0.2326,0.16735 0.5883,0.71772 -0.2683,2.65292 -2.4254,5.47887 -4.2161,5.52341 -4.7783,9.72176 -4.2773,31.9421 0.3645,16.16535 0.6432,19.33092 1.8019,20.46935 0.2799,0.275 1.5971,2.12692 2.9271,4.11537 2.4795,3.70699 9.9954,9.36043 13.564,10.20275 1.1,0.25965 19.0086,0.49861 39.7968,0.53103 l 37.7968,0.0589 z"
       id="path1"
       inkscape:label="path1"
       inkscape:export-filename="subitoLogoInk.svg"
       inkscape:export-xdpi="96"
       inkscape:export-ydpi="96" /><path
       style="fill:#000000;fill-opacity:1"
       d="m 183.19374,341.28112 c -0.59915,-0.44921 -1.31583,-1.26971 -1.59263,-1.82333 -0.2768,-0.55362 -1.48441,-12.67056 -2.68358,-26.92653 l -2.1803,-25.91994 -7.32276,-7.83841 -7.32276,-7.83841 -1.0513,3.07053 c -2.42472,7.08188 -7.51939,13.98401 -13.24688,17.94654 -6.09274,4.21523 -39.1983,18.70607 -41.57164,18.19658 -1.762,-0.37825 -3.80652,-3.0013 -3.80652,-4.88363 0,-1.73308 11.21286,-31.52556 14.82061,-39.37825 1.99924,-4.35158 3.18386,-6.15872 6.11169,-9.32338 3.85833,-4.17043 9.52349,-8.11695 13.25868,-9.23637 1.21368,-0.36374 2.2067,-0.81121 2.2067,-0.99438 0,-0.18317 -3.32065,-3.88392 -7.37923,-8.22389 l -7.37922,-7.89087 -24.665759,-2.40961 -24.66576,-2.40961 -1.401533,-1.67904 c -1.475604,-1.76778 -1.746306,-3.4463 -0.879716,-5.45476 0.426402,-0.98825 50.069598,-42.04916 52.965158,-43.80857 0.47499,-0.28861 8.33232,-1.14774 17.46075,-1.90916 l 16.59713,-1.38442 7.74996,-8.13373 c 26.32168,-27.62512 50.94276,-44.45245 76.17123,-52.05939 11.31629,-3.41211 17.44863,-4.31443 31.18049,-4.58792 14.36839,-0.28616 15.76806,-0.0449 17.43272,3.00529 0.9358,1.71467 1.00428,2.68432 0.98542,13.95215 -0.0146,8.72808 -0.26242,13.8736 -0.88744,18.42738 -4.65291,33.90025 -20.74268,64.50239 -52.01937,98.93885 l -8.3374,9.1797 -1.23557,17.27939 c -0.94785,13.2555 -1.41877,17.57866 -2.02222,18.56451 -1.67359,2.73407 -39.24102,55.08839 -39.96428,55.69456 -1.07979,0.90501 -4.03332,0.82631 -5.32467,-0.14188 z m 37.42574,-131.06809 c 5.46083,-1.52253 9.62422,-4.72745 12.60885,-9.70611 2.32689,-3.88148 3.11285,-7.40932 2.88035,-12.92858 -0.24607,-5.84146 -1.55345,-9.19978 -5.27565,-13.55175 -4.58508,-5.36086 -11.90259,-8.11215 -18.22711,-6.85316 -10.8407,2.15801 -17.70439,11.37395 -17.13403,23.00602 0.66986,13.66107 12.94111,23.43685 25.14759,20.03358 z"
       id="path2"
       inkscape:export-filename="path2.svg"
       inkscape:export-xdpi="96"
       inkscape:export-ydpi="96" /></g></svg>
