<?xml version="1.0" encoding="utf-8"?>
<!-- Generator: Adobe Illustrator 23.0.2, SVG Export Plug-In . SVG Version: 6.00 Build 0)  -->
<svg version="1.1" id="Layer_1" xmlns="http://www.w3.org/2000/svg" xmlns:xlink="http://www.w3.org/1999/xlink" x="0px" y="0px"
	 viewBox="0 0 1750 200" style="enable-background:new 0 0 1750 200;" xml:space="preserve">
<style type="text/css">
	.st0{fill:#1F89AB;}
	.st1{fill:#4D6A88;}
	.st2{fill:none;stroke:#536A86;stroke-width:1.3802;stroke-linecap:round;stroke-linejoin:round;stroke-miterlimit:10;}
	.st3{display:none;}
	.st4{display:inline;fill:#1F89AB;}
</style>
<g>
	<g>
		<g>
			<path class="st0" d="M282.2,147.4c0,2.5,0.9,4.3,2.7,5.3c1.8,1,5.1,1.9,10,3c1.3,0.3,1.9,1.3,1.9,3.1c0,0.8-0.1,1.8-0.4,3.1
				c-4-0.3-7.9-0.5-11.9-0.7c-4-0.2-7.7-0.3-11.3-0.3c-3.5,0-7.3,0.1-11.4,0.3c-4.2,0.2-8.1,0.4-11.8,0.7c-0.3-1.3-0.4-2.3-0.4-3.1
				c0-1.8,0.6-2.8,1.9-3.1c4.9-0.9,8.2-1.8,10-2.9c1.8-1,2.7-2.8,2.7-5.3V50.2c0-2.5-0.9-4.4-2.7-5.4c-1.8-1.1-5.1-2-10-2.8
				c-0.8-0.1-1.3-0.5-1.5-1.1c-0.3-0.6-0.4-1.3-0.4-2.1c0-0.8,0.1-1.8,0.4-3.1c3.8,0.3,7.8,0.5,12,0.7c4.2,0.2,7.9,0.3,11.2,0.3
				c3.2,0,6.9-0.1,11-0.3c4.2-0.2,8.2-0.4,12.2-0.7c0.3,1.3,0.4,2.3,0.4,3.1c0,1.9-0.6,3-1.9,3.2c-4.9,0.8-8.2,1.7-10,2.8
				c-1.8,1.1-2.7,2.9-2.7,5.4V147.4z"/>
			<path class="st0" d="M413.7,130.4V50.6c0-2.8-1-4.8-3.1-5.9c-2-1.1-5.5-2-10.4-2.7c-1.4-0.1-2.1-1.2-2.1-3.2
				c0-0.8,0.1-1.8,0.4-3.1c3.2,0.3,6.5,0.5,9.8,0.7c3.3,0.2,6.5,0.3,9.4,0.3c2.8,0,5.8-0.1,8.8-0.3c3.1-0.2,6.1-0.4,9-0.7
				c0.3,1.3,0.4,2.3,0.4,3.1c0,2-0.6,3.1-1.9,3.2c-4.3,0.6-7.3,1.5-8.9,2.7c-1.6,1.1-2.4,3-2.4,5.5v112.5c-0.3,0.1-0.7,0.2-1.3,0.3
				c-0.6,0.1-1.1,0.1-1.5,0.1c-0.9,0-1.7-0.2-2.5-0.7c-0.8-0.4-1.7-1.4-2.7-2.8L336.8,57.5v90c0,2.5,0.9,4.3,2.7,5.3
				c1.8,1,5.2,2,10.4,2.9c1.3,0.3,1.9,1.3,1.9,3.1c0,0.8-0.1,1.8-0.4,3.1c-3.2-0.3-6.4-0.5-9.7-0.7c-3.3-0.2-6.3-0.3-9.1-0.3
				c-2.6,0-5.6,0.1-9,0.3s-6.6,0.4-9.4,0.7c-0.3-1.3-0.4-2.3-0.4-3.1c0-1.8,0.7-2.8,2.1-3.1c4.6-0.9,7.7-1.8,9.3-2.9
				c1.6-1,2.4-2.8,2.4-5.3V49.3c0-2-0.7-3.6-2.2-4.7c-1.5-1.1-4.5-1.9-9.1-2.6c-1.4-0.3-2.1-1.3-2.1-3.2c0-0.6,0.1-1.2,0.2-1.7
				c0-0.4,0.1-0.8,0.2-1.3c2.6,0.3,5,0.4,7.3,0.6c2,0.1,4.2,0.2,6.5,0.3c2.3,0.1,4.3,0.1,6.1,0.1c3.7,0,6.2,0.1,7.4,0.4
				c1.2,0.3,2.2,0.9,3,1.9L413.7,130.4z"/>
			<path class="st0" d="M468.3,50.2c0-2.5-1-4.3-3-5.3c-2-1-5.5-2-10.6-2.9c-0.9-0.3-1.4-0.6-1.6-1.1c-0.2-0.4-0.3-1.2-0.3-2.2
				c0-0.8,0.1-1.8,0.4-3.1c4.2,0.3,8.3,0.5,12.3,0.7c4,0.2,7.7,0.3,11.3,0.3h38c5,0,9.7-0.2,14.2-0.6c4.5-0.4,7.5-0.6,9.2-0.6
				c1.5,0,2.6,1,3.3,3.2c0.6,2.1,1.1,4.6,1.5,7.5c0.4,2.9,0.8,6,1.3,9.3c0.5,3.2,1.4,6.1,2.7,8.5c-0.4,0.5-0.9,0.9-1.5,1.1
				c-0.6,0.2-1.3,0.3-1.9,0.3c-1.5,0-2.6-0.6-3.1-1.7c-1.5-3.4-3-6.4-4.5-8.8c-1.5-2.4-3.1-4.4-5-5.9c-1.9-1.5-4.1-2.6-6.6-3.3
				c-2.6-0.7-5.8-1.1-9.6-1.1h-28.4v50.8h28.6c2.6,0,4.4-1.2,5.5-3.7c1.1-2.5,1.9-5.4,2.6-8.9c0.4-1.7,1.5-2.5,3.4-2.5
				c1,0,2,0.1,3.1,0.4c-0.3,2.8-0.5,6-0.7,9.6c-0.2,3.6-0.3,6.8-0.3,9.5c0,2.2,0.1,4.8,0.2,7.8c0.1,3.1,0.4,6.6,0.8,10.5
				c-1,0.3-2,0.4-2.9,0.4c-1,0-1.9-0.2-2.5-0.5c-0.6-0.3-1-1-1.1-2c-0.5-3.3-1.3-6.2-2.5-8.8c-1.1-2.5-3-3.8-5.6-3.8h-28.6v44.3
				c0,2.5,1.6,4.3,4.9,5.3c3.3,1,7.3,1.8,12,2.4c1.5,0.1,2.3,1.2,2.3,3.2c0,0.9-0.1,2-0.4,3.2c-2.7-0.1-5.6-0.3-8.6-0.4
				c-2.6-0.1-5.5-0.3-8.9-0.4c-3.4-0.1-6.9-0.2-10.6-0.2c-3.5,0-7.4,0.1-11.7,0.3c-4.3,0.2-8.4,0.4-12.1,0.7
				c-0.3-1.3-0.4-2.3-0.4-3.1c0-1.9,0.6-2.9,1.9-3.1c4.2-1,7.5-2,10-3c2.4-1,3.6-2.7,3.6-5.3V50.2z"/>
			<path class="st0" d="M557.5,98.7c0-8.8,1.6-17.1,4.8-24.8c3.2-7.8,7.5-14.6,13-20.4c5.5-5.9,11.9-10.5,19.2-13.9
				c7.3-3.4,15-5.2,23-5.2c11.1,0,20.8,1.8,29.1,5.3c8.3,3.5,15.2,8.2,20.6,14.1c5.4,5.9,9.5,12.8,12.2,20.5c2.7,7.8,4,15.9,4,24.4
				c0,10.1-1.7,19.1-5,27c-3.3,8-7.9,14.7-13.7,20.2c-5.8,5.5-12.7,9.8-20.5,12.7c-7.9,2.9-16.3,4.4-25.2,4.4
				c-9.1,0-17.4-1.5-24.9-4.6c-7.5-3.1-14-7.4-19.5-13.1c-5.4-5.7-9.7-12.4-12.7-20.3C559,117.2,557.5,108.4,557.5,98.7z
				 M623.4,153.9c6,0,11.5-1.1,16.5-3.4c5-2.3,9.3-5.5,12.8-9.5c3.6-4.1,6.4-8.9,8.3-14.5c2-5.6,3-11.7,3-18.3
				c0-9.2-1-17.7-2.9-25.5c-1.9-7.8-4.8-14.6-8.7-20.4c-3.9-5.8-8.8-10.3-14.8-13.7c-5.9-3.3-12.9-5-20.8-5c-5.2,0-10.3,1-15,3
				c-4.8,2-9,4.8-12.7,8.6c-3.6,3.8-6.6,8.4-8.7,13.8c-2.2,5.5-3.3,11.8-3.3,18.9c0,9.4,1,18.2,3.1,26.3c2,8.1,5,15.1,8.9,21
				c3.9,5.9,8.7,10.5,14.5,13.8C609.4,152.3,616,153.9,623.4,153.9z"/>
			<path class="st0" d="M749,105h-14.2v42c0,2.8,1.3,4.7,3.9,5.7c2.6,1,6.6,1.8,12,2.5c1.5,0.3,2.3,1.3,2.3,3.2c0,0.9-0.1,2-0.4,3.2
				c-3.5-0.3-7.6-0.5-12.6-0.7c-4.9-0.2-9.7-0.3-14.5-0.3c-3.3,0-7.2,0.1-11.5,0.3c-4.3,0.2-8.4,0.4-12.3,0.7
				c-0.3-1.3-0.4-2.3-0.4-3.1c0-1.8,0.7-2.8,2.1-3.1c4.9-0.8,8.3-1.7,10.3-2.8c2-1.1,3-2.9,3-5.4V50.2c0-2.4-0.9-4.2-2.8-5.4
				c-1.9-1.2-5.5-2.1-10.8-2.8c-1.3-0.1-1.9-1.2-1.9-3.2c0-0.8,0.1-1.8,0.4-3.1c3.8,0.3,7.8,0.5,11.9,0.7c4.1,0.2,8,0.3,11.7,0.3
				h25.9c13.8,0,24.2,3,31.2,9.1c7,6,10.5,14.2,10.5,24.5c0,2.8-0.5,5.7-1.4,8.8c-1,3.1-2.4,6-4.4,9c-2,2.9-4.5,5.6-7.7,8.1
				c-3.1,2.5-6.8,4.5-11,6l32,44.3c2.4,3.3,5.1,5.6,8.1,6.9c2.9,1.3,5.7,2.2,8.2,2.9c1.1,0.3,1.7,1.1,1.7,2.7c0,1-0.1,2.2-0.4,3.4
				c-2.9-0.3-6.5-0.5-10.7-0.7c-4.2-0.2-8.1-0.3-11.7-0.3c-2.7,0-5.4-1.1-8.1-3.4c-2.7-2.3-5.3-5.2-7.8-8.8L749,105z M744.9,97.2
				c8.9,0,15.8-1.9,20.7-5.6c4.9-3.8,7.3-10.3,7.3-19.8c0-3.9-0.5-7.6-1.5-10.9c-1-3.3-2.7-6.2-4.9-8.6c-2.2-2.4-5.2-4.3-8.8-5.7
				c-3.6-1.4-8.1-2.1-13.3-2.1h-9.6v52.7H744.9z"/>
			<path class="st0" d="M859.2,44.5v48.9h29.9c2.6,0,4.4-1.2,5.5-3.7c1.1-2.5,1.9-5.5,2.6-9.1c0.4-1.7,1.5-2.5,3.5-2.5
				c0.4,0,0.9,0.1,1.5,0.2c0.6,0.1,1.2,0.3,1.5,0.4c-0.3,2.8-0.5,6-0.7,9.5c-0.2,3.6-0.3,6.7-0.3,9.4c0,2.2,0.1,4.8,0.2,7.9
				c0.1,3.1,0.4,6.7,0.8,10.6c-1,0.3-2,0.4-2.9,0.4c-2,0-3.3-0.8-3.6-2.5c-0.6-3.6-1.5-6.6-2.6-9.1c-1.1-2.5-2.9-3.7-5.5-3.7h-29.9
				v45.1c0,2.7,1.7,4.5,5.2,5.3c3.5,0.9,9.1,1.3,17.1,1.3h10.5c3.7,0,6.9-0.5,9.7-1.6c2.7-1.1,5.2-2.5,7.3-4.4c2.1-1.8,4-4,5.7-6.6
				c1.7-2.5,3.3-5.3,4.8-8.4c0.4-0.9,1.3-1.3,2.9-1.3c0.6,0,1.3,0.2,2,0.6c0.7,0.4,1.4,0.8,2,1.1c-1.2,2.4-2.1,5.3-3,8.7
				c-0.8,3.4-1.6,6.6-2.4,9.6c-0.8,3.1-1.6,5.7-2.4,7.8c-0.8,2.2-1.9,3.2-3.2,3.2c-1,0-2.5-0.1-4.4-0.2c-1.9-0.1-4-0.2-6.2-0.3
				c-2.2-0.1-4.5-0.2-6.8-0.3c-2.3-0.1-4.3-0.2-5.9-0.2h-42c-3.7,0-7.7,0.1-11.9,0.3c-4.2,0.2-8.2,0.4-12.1,0.7
				c-0.3-1.3-0.4-2.3-0.4-3.1c0-1.8,0.6-2.8,1.9-3.1c4.9-0.9,8.3-1.8,10.4-2.9c2.1-1,3.2-2.8,3.2-5.3V50.2c0-2.5-0.9-4.3-2.8-5.3
				c-1.9-1-5.5-1.9-10.8-3c-1.3-0.3-1.9-1.3-1.9-3.2c0-0.6,0-1.2,0.1-1.6c0.1-0.4,0.2-0.9,0.3-1.4c5.5,0.4,10.1,0.6,13.8,0.8
				c3.7,0.1,7,0.2,10,0.2h37.8c5.8,0,10.7-0.2,15-0.6c4.2-0.4,7-0.6,8.4-0.6c1.7,0,2.8,1,3.4,3.2c0.6,2.1,1.1,4.6,1.4,7.5
				c0.4,2.9,0.8,6,1.3,9.4c0.5,3.3,1.5,6.1,2.9,8.4c-1,0.8-2.2,1.1-3.5,1.1c-1.7,0-2.7-0.6-3.3-1.7c-1.5-3.3-3-6.1-4.4-8.5
				c-1.4-2.4-3-4.3-4.9-5.8c-1.9-1.5-4.1-2.7-6.7-3.4c-2.6-0.8-5.8-1.1-9.7-1.1H859.2z"/>
		</g>
	</g>
	<g>
		<path class="st1" d="M974.3,81.7V36.6h4v45.1H974.3z"/>
		<path class="st1" d="M1017.5,57.1v24.6h-3.8V57.6c0-5.7-2.3-8-6.5-8c-4.7,0-7.9,2.9-10.7,7.1v24.9h-3.8V47.3h3.3l0.4,5.9
			c2.7-3.9,6.5-6.6,11.6-6.6C1014.1,46.6,1017.5,50.4,1017.5,57.1z"/>
		<path class="st1" d="M1039.6,82.4c-5.2,0-8.5-3.1-8.5-9.1v-23h-5.8v-3.1h5.8v-8.2l3.8-0.5v8.7h8.9l-0.5,3.1h-8.5v22.8
			c0,4,1.6,6,5.1,6c1.9,0,3.6-0.5,5.3-1.6l1.5,2.7C1044.7,81.6,1042.4,82.4,1039.6,82.4z"/>
		<path class="st1" d="M1077.4,66h-23c0.5,9.3,4.8,13.2,10.8,13.2c3.8,0,6.3-1.2,9.3-3.4l1.8,2.4c-3.2,2.6-6.7,4.2-11.3,4.2
			c-9.1,0-14.7-6.6-14.7-17.6c0-11,5.3-18.2,13.8-18.2c9,0,13.5,6.5,13.5,16.6C1077.5,64.3,1077.4,65.3,1077.4,66z M1073.7,62
			c0-7.5-3-12.3-9.6-12.3c-5.4,0-9.4,3.9-9.8,13.3h19.4V62z"/>
		<path class="st1" d="M1105.4,47l-0.7,3.6c-1-0.3-1.8-0.4-3-0.4c-4.8,0-7.4,3.4-9.2,10.5v21.1h-3.8V47.3h3.3l0.3,7.7
			c1.8-5.7,5-8.4,9.8-8.4C1103.3,46.6,1104.4,46.7,1105.4,47z"/>
		<path class="st1" d="M1136.2,79.7l-0.9,2.7c-3-0.6-4.8-2.1-5.3-5.8c-2.4,3.9-6.1,5.8-10.8,5.8c-6.7,0-10.7-4.1-10.7-10.3
			c0-7.2,5.5-11.2,14.3-11.2h6.6v-3.3c0-5.5-2.2-7.9-8-7.9c-2.8,0-5.9,0.7-9.4,2l-1-2.9c3.8-1.5,7.3-2.3,10.9-2.3
			c7.9,0,11.3,3.9,11.3,10.9v16.6C1133.3,77.9,1134.4,79,1136.2,79.7z M1129.5,73.3v-9.5h-6c-6.9,0-10.8,2.7-10.8,8.2
			c0,4.7,2.7,7.4,7.3,7.4C1124.3,79.3,1127.3,77.2,1129.5,73.3z"/>
		<path class="st1" d="M1168.8,50l-1.9,2.6c-2.2-1.8-4.5-2.8-7.7-2.8c-6.3,0-10.7,4.9-10.7,14.8c0,9.9,4.4,14.4,10.6,14.4
			c3.2,0,5.5-1.1,7.9-3l1.9,2.6c-2.7,2.3-6,3.7-9.9,3.7c-8.9,0-14.7-6.5-14.7-17.7c0-11.1,5.7-18.2,14.6-18.2
			C1163,46.6,1165.9,47.5,1168.8,50z"/>
		<path class="st1" d="M1186.7,82.4c-5.2,0-8.5-3.1-8.5-9.1v-23h-5.8v-3.1h5.8v-8.2l3.8-0.5v8.7h8.9l-0.5,3.1h-8.5v22.8
			c0,4,1.6,6,5.1,6c1.9,0,3.6-0.5,5.3-1.6l1.5,2.7C1191.8,81.6,1189.4,82.4,1186.7,82.4z"/>
		<path class="st1" d="M1205.5,34.9c0,1.5-1.1,2.8-2.9,2.8c-1.7,0-2.8-1.3-2.8-2.8s1.1-2.8,2.8-2.8
			C1204.4,32.2,1205.5,33.4,1205.5,34.9z M1200.7,81.7V47.3h3.8v34.4H1200.7z"/>
		<path class="st1" d="M1224.9,81.7l-12.3-34.4h4.2l10.5,31.1l10.2-31.1h4.1l-12,34.4H1224.9z"/>
		<path class="st1" d="M1273.3,66h-23c0.5,9.3,4.8,13.2,10.8,13.2c3.8,0,6.3-1.2,9.3-3.4l1.8,2.4c-3.2,2.6-6.7,4.2-11.3,4.2
			c-9.1,0-14.7-6.6-14.7-17.6c0-11,5.3-18.2,13.8-18.2c9,0,13.5,6.5,13.5,16.6C1273.5,64.3,1273.4,65.3,1273.3,66z M1269.7,62
			c0-7.5-3-12.3-9.6-12.3c-5.4,0-9.4,3.9-9.8,13.3h19.4V62z"/>
		<path class="st1" d="M1307.2,39.9v16.8h16V60h-16v18.4h19.5v3.3h-23.4V36.6h23l-0.5,3.3H1307.2z"/>
		<path class="st1" d="M1354.7,81.7l-10-16l-9.9,16h-4.4l12.2-18.3L1332,47.3h4.5l8.5,13.8l8.5-13.8h4.4l-10.6,16l12.2,18.4H1354.7z
			"/>
		<path class="st1" d="M1375.5,82.4c-5.2,0-8.5-3.1-8.5-9.1v-23h-5.8v-3.1h5.8v-8.2l3.8-0.5v8.7h8.9l-0.5,3.1h-8.5v22.8
			c0,4,1.6,6,5.1,6c1.9,0,3.6-0.5,5.3-1.6l1.5,2.7C1380.7,81.6,1378.3,82.4,1375.5,82.4z"/>
		<path class="st1" d="M1406.4,47l-0.7,3.6c-1-0.3-1.8-0.4-3-0.4c-4.8,0-7.4,3.4-9.2,10.5v21.1h-3.8V47.3h3.3l0.3,7.7
			c1.8-5.7,5-8.4,9.8-8.4C1404.3,46.6,1405.5,46.7,1406.4,47z"/>
		<path class="st1" d="M1437.9,66h-23c0.5,9.3,4.8,13.2,10.8,13.2c3.8,0,6.3-1.2,9.3-3.4l1.8,2.4c-3.2,2.6-6.7,4.2-11.3,4.2
			c-9.1,0-14.7-6.6-14.7-17.6c0-11,5.3-18.2,13.8-18.2c9,0,13.5,6.5,13.5,16.6C1438,64.3,1438,65.3,1437.9,66z M1434.3,62
			c0-7.5-3-12.3-9.6-12.3c-5.4,0-9.4,3.9-9.8,13.3h19.4V62z"/>
		<path class="st1" d="M1491.7,57.1v24.6h-3.8V57.6c0-5.6-2.3-8-5.9-8c-4.2,0-7.1,2.9-9.7,7.1v24.9h-3.8V57.6c0-5.6-2.3-8-5.9-8
			c-4.2,0-7.1,2.9-9.7,7.1v24.9h-3.8V47.3h3.3l0.3,5.9c2.6-3.9,6.2-6.6,10.6-6.6c4.4,0,7.5,2.6,8.6,6.8c2.6-4.1,6.3-6.8,10.8-6.8
			C1488.3,46.6,1491.7,50.6,1491.7,57.1z"/>
		<path class="st1" d="M1529.8,66h-23c0.5,9.3,4.8,13.2,10.8,13.2c3.8,0,6.3-1.2,9.3-3.4l1.8,2.4c-3.2,2.6-6.7,4.2-11.3,4.2
			c-9.1,0-14.7-6.6-14.7-17.6c0-11,5.3-18.2,13.8-18.2c9,0,13.5,6.5,13.5,16.6C1529.9,64.3,1529.9,65.3,1529.8,66z M1526.2,62
			c0-7.5-3-12.3-9.6-12.3c-5.4,0-9.4,3.9-9.8,13.3h19.4V62z"/>
		<path class="st1" d="M1555.9,59.5v3.3h-17.5v-3.3H1555.9z"/>
		<path class="st1" d="M1591.1,40.9l-2.4,2.6c-3.3-3-6.3-4.2-10.5-4.2c-5.5,0-9.4,2.9-9.4,7.6c0,4.6,2.4,6.7,10.6,9.1
			c8.1,2.5,13.1,5.4,13.1,13.4c0,7.7-5.9,13-15,13c-6.2,0-10.8-2.2-14.5-5.7l2.4-2.6c3.2,3,6.7,4.9,12,4.9c6.3,0,11-3.5,11-9.5
			c0-5.5-2.7-7.7-10.8-10.2c-9-2.8-12.9-5.9-12.9-12.4c0-6.4,5.4-11.1,13.3-11.1C1584,35.9,1587.5,37.7,1591.1,40.9z"/>
		<path class="st1" d="M1624.6,50l-1.9,2.6c-2.2-1.8-4.5-2.8-7.7-2.8c-6.3,0-10.7,4.9-10.7,14.8c0,9.9,4.4,14.4,10.6,14.4
			c3.2,0,5.5-1.1,7.9-3l1.9,2.6c-2.7,2.3-6,3.7-9.9,3.7c-8.9,0-14.7-6.5-14.7-17.7c0-11.1,5.7-18.2,14.6-18.2
			C1618.8,46.6,1621.7,47.5,1624.6,50z"/>
		<path class="st1" d="M1658.4,79.7l-0.9,2.7c-3-0.6-4.8-2.1-5.3-5.8c-2.4,3.9-6.1,5.8-10.8,5.8c-6.7,0-10.7-4.1-10.7-10.3
			c0-7.2,5.5-11.2,14.3-11.2h6.6v-3.3c0-5.5-2.2-7.9-8-7.9c-2.8,0-5.9,0.7-9.4,2l-1-2.9c3.8-1.5,7.3-2.3,10.9-2.3
			c7.9,0,11.3,3.9,11.3,10.9v16.6C1655.5,77.9,1656.5,79,1658.4,79.7z M1651.6,73.3v-9.5h-6c-6.9,0-10.8,2.7-10.8,8.2
			c0,4.7,2.7,7.4,7.3,7.4C1646.4,79.3,1649.5,77.2,1651.6,73.3z"/>
		<path class="st1" d="M1675.8,79.1c0.8,0,1.6-0.1,2.3-0.5l1.1,2.8c-1.2,0.5-2.6,0.9-4.1,0.9c-3.7,0-5.9-2.1-5.9-6.6V33.3l3.8-0.5
			v43C1672.9,78,1673.7,79.1,1675.8,79.1z"/>
		<path class="st1" d="M1711.9,66h-23c0.5,9.3,4.8,13.2,10.8,13.2c3.8,0,6.3-1.2,9.3-3.4l1.8,2.4c-3.2,2.6-6.7,4.2-11.3,4.2
			c-9.1,0-14.7-6.6-14.7-17.6c0-11,5.3-18.2,13.8-18.2c9,0,13.5,6.5,13.5,16.6C1712,64.3,1712,65.3,1711.9,66z M1708.3,62
			c0-7.5-3-12.3-9.6-12.3c-5.4,0-9.4,3.9-9.8,13.3h19.4V62z"/>
		<path class="st1" d="M975.9,148.4l-4,12.3h-4l15.1-45.1h5l15.1,45.1h-4.2l-4-12.3H975.9z M985.5,118.8L977,145h16.8L985.5,118.8z"
			/>
		<path class="st1" d="M1036.1,136.1v24.6h-3.8v-24.1c0-5.7-2.3-8-6.5-8c-4.7,0-7.9,2.9-10.7,7.1v24.9h-3.8v-34.4h3.3l0.4,5.9
			c2.7-3.9,6.5-6.6,11.6-6.6C1032.7,125.5,1036.1,129.4,1036.1,136.1z"/>
		<path class="st1" d="M1074.1,158.7l-0.9,2.7c-3-0.6-4.8-2.1-5.3-5.8c-2.4,3.9-6.1,5.8-10.8,5.8c-6.7,0-10.7-4.1-10.7-10.3
			c0-7.2,5.5-11.2,14.3-11.2h6.6v-3.3c0-5.5-2.2-7.9-8-7.9c-2.8,0-5.9,0.7-9.4,2l-1-2.9c3.8-1.5,7.3-2.3,10.9-2.3
			c7.9,0,11.3,3.9,11.3,10.9V153C1071.2,156.9,1072.3,158,1074.1,158.7z M1067.4,152.2v-9.5h-6c-6.9,0-10.8,2.7-10.8,8.2
			c0,4.7,2.7,7.4,7.3,7.4C1062.2,158.3,1065.2,156.1,1067.4,152.2z"/>
		<path class="st1" d="M1091.5,158.1c0.8,0,1.6-0.1,2.3-0.5l1.1,2.8c-1.2,0.5-2.6,0.9-4.1,0.9c-3.7,0-5.9-2.1-5.9-6.6v-42.5l3.8-0.5
			v43C1088.7,157,1089.4,158.1,1091.5,158.1z"/>
		<path class="st1" d="M1100.8,174.1l-0.4-3c6.9-1.7,8.7-4.4,10.8-10.5h-1.3l-12-34.4h4.2l10.4,31.6l10.2-31.6h4l-11.8,34.5
			C1112.4,168.3,1109.3,172.4,1100.8,174.1z"/>
		<path class="st1" d="M1143.3,161.4c-5.2,0-8.5-3.1-8.5-9.1v-23h-5.8v-3.1h5.8V118l3.8-0.5v8.7h8.9l-0.5,3.1h-8.5v22.8
			c0,4,1.6,6,5.1,6c1.9,0,3.6-0.5,5.3-1.6l1.5,2.7C1148.4,160.6,1146.1,161.4,1143.3,161.4z"/>
		<path class="st1" d="M1162.1,113.9c0,1.5-1.1,2.8-2.9,2.8c-1.7,0-2.8-1.3-2.8-2.8c0-1.5,1.1-2.8,2.8-2.8
			C1161,111.1,1162.1,112.4,1162.1,113.9z M1157.3,160.7v-34.4h3.8v34.4H1157.3z"/>
		<path class="st1" d="M1196.8,129l-1.9,2.6c-2.2-1.8-4.5-2.8-7.7-2.8c-6.3,0-10.7,4.9-10.7,14.8c0,9.9,4.4,14.4,10.6,14.4
			c3.2,0,5.5-1.1,7.9-3l1.9,2.6c-2.7,2.3-6,3.7-9.9,3.7c-8.9,0-14.7-6.5-14.7-17.7c0-11.1,5.7-18.2,14.6-18.2
			C1190.9,125.5,1193.9,126.5,1196.8,129z"/>
		<path class="st1" d="M1225.6,129.3l-1.8,2.6c-3-2.2-5.5-3.2-9-3.2c-4.6,0-7.7,2.2-7.7,5.8c0,3.4,2.2,4.9,8.4,6.5
			c7.5,2,11.1,4.5,11.1,10.4c0,6.4-5.6,10-12.5,10c-5.6,0-9.4-1.9-12.4-4.4l2.2-2.5c2.8,2.4,5.9,3.7,10.1,3.7c5,0,8.5-2.4,8.5-6.5
			c0-4.2-1.9-5.7-9.1-7.7c-7.3-1.9-10.3-4.6-10.3-9.5c0-5.2,5-8.9,11.5-8.9C1219,125.5,1222.4,126.8,1225.6,129.3z"/>
		<path class="st1" d="M1279.6,158.7l-0.9,2.7c-3-0.6-4.8-2.1-5.3-5.8c-2.4,3.9-6.1,5.8-10.8,5.8c-6.7,0-10.7-4.1-10.7-10.3
			c0-7.2,5.5-11.2,14.3-11.2h6.6v-3.3c0-5.5-2.2-7.9-8-7.9c-2.8,0-5.9,0.7-9.4,2l-1-2.9c3.8-1.5,7.3-2.3,10.9-2.3
			c7.9,0,11.3,3.9,11.3,10.9V153C1276.7,156.9,1277.7,158,1279.6,158.7z M1272.9,152.2v-9.5h-6c-6.9,0-10.8,2.7-10.8,8.2
			c0,4.7,2.7,7.4,7.3,7.4C1267.6,158.3,1270.7,156.1,1272.9,152.2z"/>
		<path class="st1" d="M1315.5,136.1v24.6h-3.8v-24.1c0-5.7-2.3-8-6.5-8c-4.7,0-7.9,2.9-10.7,7.1v24.9h-3.8v-34.4h3.3l0.4,5.9
			c2.7-3.9,6.5-6.6,11.6-6.6C1312.2,125.5,1315.5,129.4,1315.5,136.1z"/>
		<path class="st1" d="M1353.8,160.7h-3.3l-0.5-5.3c-2,3.4-5.3,6-10.4,6c-8.1,0-12.9-6.8-12.9-17.8c0-10.6,5.1-18.1,13.5-18.1
			c4.7,0,7.7,2.2,9.7,4.7v-18.4l3.8,0.5V160.7z M1350,151.9v-18c-2-2.9-4.8-5.2-9-5.2c-6.1,0-10.2,5.2-10.1,14.9
			c0,9.6,3.6,14.7,9.4,14.7C1344.9,158.2,1347.6,155.9,1350,151.9z"/>
		<path class="st1" d="M1390.6,118.9v17.6h15.7v3.3h-15.7v20.9h-4v-45.1h22.6l-0.5,3.3H1390.6z"/>
		<path class="st1" d="M1443.2,143.4c0,11.1-5.5,18-14.7,18c-9.2,0-14.6-6.8-14.6-17.9c0-11.1,5.6-18,14.7-18
			C1437.8,125.5,1443.2,132.1,1443.2,143.4z M1418,143.5c0,9.7,3.9,14.7,10.5,14.7s10.6-4.9,10.6-14.8c0-9.7-3.9-14.6-10.6-14.6
			C1422.1,128.8,1418,133.6,1418,143.5z"/>
		<path class="st1" d="M1471.3,125.9l-0.7,3.6c-1-0.3-1.8-0.4-3-0.4c-4.8,0-7.4,3.4-9.2,10.5v21.1h-3.8v-34.4h3.3l0.3,7.7
			c1.8-5.7,5-8.4,9.8-8.4C1469.2,125.5,1470.3,125.7,1471.3,125.9z"/>
		<path class="st1" d="M1502.8,144.9h-23c0.5,9.3,4.8,13.2,10.8,13.2c3.8,0,6.3-1.2,9.3-3.4l1.8,2.4c-3.2,2.6-6.7,4.2-11.3,4.2
			c-9.1,0-14.7-6.6-14.7-17.6c0-11,5.3-18.2,13.8-18.2c9,0,13.5,6.5,13.5,16.6C1502.9,143.2,1502.8,144.3,1502.8,144.9z M1499.1,141
			c0-7.5-3-12.3-9.6-12.3c-5.4,0-9.4,3.9-9.8,13.3h19.4V141z"/>
		<path class="st1" d="M1535.5,129l-1.9,2.6c-2.2-1.8-4.5-2.8-7.7-2.8c-6.3,0-10.7,4.9-10.7,14.8c0,9.9,4.4,14.4,10.6,14.4
			c3.2,0,5.5-1.1,7.9-3l1.9,2.6c-2.7,2.3-6,3.7-9.9,3.7c-8.8,0-14.7-6.5-14.7-17.7c0-11.1,5.7-18.2,14.6-18.2
			C1529.7,125.5,1532.6,126.5,1535.5,129z"/>
		<path class="st1" d="M1569.3,158.7l-0.9,2.7c-3-0.6-4.8-2.1-5.3-5.8c-2.4,3.9-6.1,5.8-10.8,5.8c-6.7,0-10.7-4.1-10.7-10.3
			c0-7.2,5.5-11.2,14.3-11.2h6.6v-3.3c0-5.5-2.2-7.9-8-7.9c-2.8,0-5.9,0.7-9.4,2l-1-2.9c3.8-1.5,7.3-2.3,10.9-2.3
			c7.9,0,11.3,3.9,11.3,10.9V153C1566.4,156.9,1567.4,158,1569.3,158.7z M1562.6,152.2v-9.5h-6c-6.9,0-10.8,2.7-10.8,8.2
			c0,4.7,2.7,7.4,7.3,7.4C1557.3,158.3,1560.4,156.1,1562.6,152.2z"/>
		<path class="st1" d="M1599.8,129.3l-1.8,2.6c-3-2.2-5.5-3.2-9-3.2c-4.6,0-7.7,2.2-7.7,5.8c0,3.4,2.2,4.9,8.4,6.5
			c7.5,2,11.1,4.5,11.1,10.4c0,6.4-5.6,10-12.5,10c-5.6,0-9.4-1.9-12.4-4.4l2.2-2.5c2.8,2.4,5.9,3.7,10.1,3.7c5,0,8.5-2.4,8.5-6.5
			c0-4.2-1.9-5.7-9.1-7.7c-7.3-1.9-10.3-4.6-10.3-9.5c0-5.2,5-8.9,11.5-8.9C1593.2,125.5,1596.6,126.8,1599.8,129.3z"/>
		<path class="st1" d="M1619.4,161.4c-5.2,0-8.5-3.1-8.5-9.1v-23h-5.8v-3.1h5.8V118l3.8-0.5v8.7h8.9l-0.5,3.1h-8.5v22.8
			c0,4,1.6,6,5.1,6c1.9,0,3.6-0.5,5.3-1.6l1.5,2.7C1624.6,160.6,1622.2,161.4,1619.4,161.4z"/>
		<path class="st1" d="M1638.2,113.9c0,1.5-1.1,2.8-2.9,2.8c-1.7,0-2.8-1.3-2.8-2.8c0-1.5,1.1-2.8,2.8-2.8
			C1637.1,111.1,1638.2,112.4,1638.2,113.9z M1633.5,160.7v-34.4h3.8v34.4H1633.5z"/>
		<path class="st1" d="M1676.2,136.1v24.6h-3.8v-24.1c0-5.7-2.3-8-6.5-8c-4.7,0-7.9,2.9-10.7,7.1v24.9h-3.8v-34.4h3.3l0.4,5.9
			c2.7-3.9,6.5-6.6,11.6-6.6C1672.9,125.5,1676.2,129.4,1676.2,136.1z"/>
		<path class="st1" d="M1706,128c3.6,1.7,5.9,4.6,5.9,9.3c0,6.7-4.7,11.3-12.5,11.3c-1.7,0-3.2-0.2-4.5-0.7
			c-1.7,0.9-2.6,2.4-2.6,3.9c0,2,1.3,3.6,5.5,3.6h5.6c6.9,0,11.1,3.7,11.1,8.8c0,6.2-4.9,9.9-15,9.9c-10.4,0-14.4-3-14.4-9.9h3.6
			c0.1,4.8,2.6,6.7,10.8,6.7c8.1,0,11.1-2.4,11.1-6.5c0-3.7-2.9-5.7-7.8-5.7h-5.6c-5.7,0-8.5-2.8-8.5-6.1c0-2.3,1.4-4.3,3.8-5.9
			c-4-2-5.8-5.1-5.8-9.7c0-6.9,5.1-11.6,12.7-11.6c9.2,0.1,11.8-0.9,15.1-2.2l1.2,3.7C1713.2,127.6,1710.2,127.9,1706,128z
			 M1690.6,137.2c0,5.5,3.4,8.7,8.7,8.7c5.6,0,8.7-3.2,8.7-8.6c0-5.4-2.8-8.8-8.7-8.8C1693.4,128.5,1690.6,132.1,1690.6,137.2z"/>
	</g>
	<g>
		<g>
			<g>
				<line class="st2" x1="46.2" y1="166.8" x2="182.3" y2="31.7"/>
				<line class="st2" x1="182.3" y1="166.8" x2="46.2" y2="31.7"/>
			</g>
			<g>
				<path class="st0" d="M134,53c-1.8-2.4-5.3-4.7-5.3-4.7c0.9,3.4,0.8,6.6,0.8,6.6l1.6-0.7c0.2,3.3-1.2,5.1-5,6.6
					c-2.9,1-10.5,2-10.5-1.7V37.7h4.8v-3.2h-4.8V32c2.7-0.6,4.7-3,4.7-5.9c0-3.4-2.7-6.1-6.1-6.1c-3.4,0-6.1,2.7-6.1,6.1
					c0,2.9,2,5.3,4.7,5.9v2.5h-4.8v3.2h4.8V59c0,3.7-7.6,2.7-10.5,1.7c-3.8-1.5-5.2-3.3-5-6.6l1.6,0.7c0,0,0-3.1,0.8-6.6
					c0,0-3.5,2.3-5.3,4.7l1.4,0.6c-0.4,0.9-0.7,1.9-0.7,3.1c0,4.6,5.9,8.5,14.7,9.5c0,0,0,0,0,0c3.8,0.5,2.8,2.3,4.3,2.3
					c1.5,0,0.4-1.8,4.3-2.3c0,0,0,0,0,0c8.8-1,14.7-4.9,14.7-9.5c0-1.2-0.4-2.3-0.7-3.1L134,53z M111,26.1c0-1.8,1.5-3.3,3.3-3.3
					c1.8,0,3.3,1.5,3.3,3.3c0,1.8-1.5,3.3-3.3,3.3C112.5,29.4,111,27.9,111,26.1z"/>
				<g>
					<path class="st0" d="M63.1,120.2H36.3c-0.9,0-1.6,0.7-1.6,1.6c0,0.9,0.7,1.6,1.6,1.6h26.8c0.9,0,1.6-0.7,1.6-1.6
						C64.8,120.9,64.1,120.2,63.1,120.2z"/>
					<path class="st0" d="M51.4,115.5v-10.8c0-0.9-0.7-1.6-1.6-1.6c-0.9,0-1.6,0.7-1.6,1.6v10.8c0,0.9,0.7,1.6,1.6,1.6
						C50.6,117.2,51.4,116.4,51.4,115.5z"/>
					<path class="st0" d="M61.4,115.5v-10.8c0-0.9-0.7-1.6-1.6-1.6s-1.6,0.7-1.6,1.6v10.8c0,0.9,0.7,1.6,1.6,1.6
						S61.4,116.4,61.4,115.5z"/>
					<path class="st0" d="M41.3,115.5v-10.8c0-0.9-0.7-1.6-1.6-1.6c-0.9,0-1.6,0.7-1.6,1.6v10.8c0,0.9,0.7,1.6,1.6,1.6
						C40.6,117.2,41.3,116.4,41.3,115.5z"/>
					<path class="st0" d="M64.3,97.7l-11.4-7.2l-3.1-1.9l-3.1,1.9l-11.4,7.2c-0.8,0.5-1,1.5-0.5,2.3c0.5,0.8,1.5,1,2.3,0.5l12.8-8
						l12.8,8c0.8,0.5,1.8,0.2,2.3-0.5S65,98.2,64.3,97.7z"/>
					<g>
						<path class="st0" d="M80.1,93.4l-0.5-2.2c0-0.1-0.1-0.2-0.2-0.3c-0.1-0.1-0.2-0.1-0.4,0l-0.1,0l-0.2,0c-0.1,0-0.2,0-0.3,0.1
							c-0.1,0-0.2,0-0.3,0.1c-0.1,0-0.3,0-0.4,0.1c-0.1,0-0.3,0-0.5,0c-0.2,0-0.3,0-0.5,0c-1.2,0-2.2-0.3-3.1-0.9
							c-0.9-0.6-1.6-1.5-2-2.5h5.3c0.1,0,0.2,0,0.3-0.1c0.1-0.1,0.1-0.2,0.2-0.3l0.3-1.5c0-0.1,0-0.3-0.1-0.4
							c-0.1-0.1-0.2-0.2-0.3-0.2h-6.3c0-0.6,0-1.1,0-1.4h6.7c0.2,0,0.4-0.1,0.4-0.4l0.3-1.6c0-0.1,0-0.2-0.1-0.4
							c-0.1-0.1-0.2-0.2-0.3-0.2h-6.4c0.5-1,1.1-1.8,2.1-2.4c0.9-0.6,1.9-0.9,3.1-0.9c0,0,0.2,0,0.4,0c0.2,0,0.4,0,0.4,0
							c0,0,0.2,0,0.4,0c0.2,0,0.3,0,0.3,0l0.2,0c0.1,0,0.1,0,0.2,0l0.1,0c0.1,0,0.2,0,0.3,0c0.1-0.1,0.2-0.1,0.2-0.3l0.6-2.2
							c0-0.1,0-0.2,0-0.3c-0.1-0.1-0.2-0.2-0.3-0.2c-0.8-0.2-1.7-0.3-2.7-0.3c-2,0-3.9,0.6-5.5,1.8c-1.6,1.2-2.7,2.7-3.3,4.6h-1.3
							c-0.1,0-0.2,0-0.3,0.1c-0.1,0.1-0.1,0.2-0.1,0.3v1.6c0,0.1,0,0.2,0.1,0.3c0.1,0.1,0.2,0.1,0.3,0.1h0.9c0,0.4,0,0.9,0,1.4h-0.9
							c-0.1,0-0.2,0-0.3,0.1c-0.1,0.1-0.1,0.2-0.1,0.3v1.5c0,0.1,0,0.2,0.1,0.3c0.1,0.1,0.2,0.1,0.3,0.1H68c0.6,2,1.7,3.6,3.3,4.8
							c1.6,1.2,3.5,1.8,5.6,1.8c0.2,0,0.3,0,0.5,0c0.2,0,0.3,0,0.5,0c0.2,0,0.3,0,0.5-0.1c0.2,0,0.3,0,0.4-0.1c0.1,0,0.2,0,0.3-0.1
							c0.1,0,0.2,0,0.3-0.1c0.1,0,0.2,0,0.2-0.1c0.1,0,0.1,0,0.1,0l0.1,0c0.1,0,0.2-0.1,0.2-0.2C80.2,93.6,80.2,93.5,80.1,93.4z"/>
					</g>
				</g>
				<g>
					<g>
						<g>
							<path class="st0" d="M97.8,166.9H94c-1.3,0-2.4,1.1-2.4,2.4v7.5c0,1.3,1.1,2.4,2.4,2.4h3.8c1.3,0,2.4-1.1,2.4-2.4v-7.5
								C100.2,167.9,99.1,166.9,97.8,166.9z M98.6,176.8c0,0.4-0.4,0.8-0.8,0.8H94c-0.4,0-0.8-0.4-0.8-0.8v-7.5
								c0-0.4,0.4-0.8,0.8-0.8h3.8c0.4,0,0.8,0.4,0.8,0.8V176.8z"/>
							<path class="st0" d="M98.1,163.7c0.4,0,0.8-0.4,0.8-0.8v-11.6c0-0.3-0.2-0.6-0.4-0.7c-0.3-0.1-0.6-0.1-0.8,0.1l-4.4,3.1
								c-0.4,0.3-0.5,0.8-0.2,1.1c0.3,0.4,0.8,0.5,1.1,0.2l3.2-2.2v10C97.3,163.4,97.7,163.7,98.1,163.7z"/>
						</g>
						<path class="st0" d="M112.8,160.9v-7.5c0-1.3-1.1-2.4-2.4-2.4h-3.8c-1.3,0-2.4,1.1-2.4,2.4v7.5c0,1.3,1.1,2.4,2.4,2.4h3.8
							C111.7,163.3,112.8,162.3,112.8,160.9z M105.8,160.9v-7.5c0-0.4,0.4-0.8,0.8-0.8h3.8c0.4,0,0.8,0.4,0.8,0.8v7.5
							c0,0.4-0.4,0.8-0.8,0.8h-3.8C106.1,161.7,105.8,161.4,105.8,160.9z"/>
						<path class="st0" d="M106.7,138.8l3.2-2.2v10c0,0.4,0.4,0.8,0.8,0.8c0.4,0,0.8-0.4,0.8-0.8V135c0-0.3-0.2-0.6-0.4-0.7
							c-0.3-0.1-0.6-0.1-0.8,0.1l-4.4,3.1c-0.4,0.3-0.5,0.8-0.2,1.1C105.8,139,106.3,139,106.7,138.8z"/>
						<path class="st0" d="M110.7,180c0.4,0,0.8-0.4,0.8-0.8v-11.6c0-0.3-0.2-0.6-0.4-0.7c-0.3-0.1-0.6-0.1-0.8,0.1l-4.4,3.1
							c-0.4,0.3-0.5,0.8-0.2,1.1c0.3,0.4,0.8,0.5,1.1,0.2l3.2-2.2v10C109.9,179.6,110.2,180,110.7,180z"/>
						<path class="st0" d="M118.3,147.4h3.8c1.3,0,2.4-1.1,2.4-2.4v-7.5c0-1.3-1.1-2.4-2.4-2.4h-3.8c-1.3,0-2.4,1.1-2.4,2.4v7.5
							C115.9,146.3,117,147.4,118.3,147.4z M117.5,137.5c0-0.4,0.4-0.8,0.8-0.8h3.8c0.4,0,0.8,0.4,0.8,0.8v7.5
							c0,0.4-0.4,0.8-0.8,0.8h-3.8c-0.4,0-0.8-0.4-0.8-0.8V137.5z"/>
						<path class="st0" d="M122.1,167.6h-3.8c-1.3,0-2.4,1.1-2.4,2.4v7.5c0,1.3,1.1,2.4,2.4,2.4h3.8c1.3,0,2.4-1.1,2.4-2.4V170
							C124.5,168.6,123.4,167.6,122.1,167.6z M122.9,177.5c0,0.4-0.4,0.8-0.8,0.8h-3.8c-0.4,0-0.8-0.4-0.8-0.8V170
							c0-0.4,0.4-0.8,0.8-0.8h3.8c0.4,0,0.8,0.4,0.8,0.8V177.5z"/>
						<path class="st0" d="M122.4,163.7c0.4,0,0.8-0.4,0.8-0.8v-11.6c0-0.3-0.2-0.6-0.4-0.7c-0.3-0.1-0.6-0.1-0.8,0.1l-4.4,3.1
							c-0.4,0.3-0.5,0.8-0.2,1.1c0.3,0.4,0.8,0.5,1.1,0.2l3.2-2.2v10C121.6,163.4,122,163.7,122.4,163.7z"/>
						<path class="st0" d="M135,163.7c0.4,0,0.8-0.4,0.8-0.8v-11.6c0-0.3-0.2-0.6-0.4-0.7c-0.3-0.1-0.6-0.1-0.8,0.1l-4.4,3.1
							c-0.4,0.3-0.5,0.8-0.2,1.1c0.3,0.4,0.8,0.5,1.1,0.2l3.2-2.2v10C134.2,163.4,134.5,163.7,135,163.7z"/>
						<path class="st0" d="M130.9,147.4h3.8c1.3,0,2.4-1.1,2.4-2.4v-7.5c0-1.3-1.1-2.4-2.4-2.4h-3.8c-1.3,0-2.4,1.1-2.4,2.4v7.5
							C128.4,146.3,129.5,147.4,130.9,147.4z M130.1,137.5c0-0.4,0.4-0.8,0.8-0.8h3.8c0.4,0,0.8,0.4,0.8,0.8v7.5
							c0,0.4-0.4,0.8-0.8,0.8h-3.8c-0.4,0-0.8-0.4-0.8-0.8V137.5z"/>
					</g>
				</g>
				<g class="st3">
					<path class="st4" d="M155.9,104.1c-0.4,0.1-0.7,0.3-1,0.4c-1.1,0.4-2.1,0.8-3.2,1.2c-0.2,0.1-0.3,0.2-0.4,0.4
						c-0.3,1.1-0.6,2.2-1,3.2c-0.2,0.5-0.3,1-0.5,1.5c-0.1,0.3-0.6,0.5-1,0.5c-0.4-0.1-0.8-0.4-0.7-0.8c0.1-0.7,0.3-1.3,0.4-1.9
						c0.2-0.9,0.5-1.7,0.8-2.6c0.1-0.3,0-0.4-0.2-0.5c-1.3-0.5-2.6-1.1-3.9-1.7c-0.6-0.2-0.8-0.8-0.6-1.3c0.2-0.5,0.8-0.7,1.4-0.5
						c1.5,0.6,3,1.3,4.5,1.9c0.1,0.1,0.4,0.1,0.5,0c1.8-0.7,3.6-1.3,5.4-2c0.3-0.1,0.2-0.2,0.1-0.4c-0.7-1.3-0.9-2.6-0.4-4
						c0.1-0.5,0.4-0.9,0.6-1.4c0.1-0.1,0.1-0.2,0.2-0.4c-0.6-0.1-1.1-0.3-1.7-0.4c-1.3-0.3-2.5-0.6-3.8-0.9c-0.3-0.1-0.5,0-0.8,0.1
						c-1.2,0.7-2.3,1.3-3.5,2c-0.4,0.2-0.9,0.2-1.2-0.1c-0.3-0.3-0.4-0.8-0.2-1.1c0.1-0.2,0.3-0.4,0.5-0.5c1-0.6,1.9-1.1,2.9-1.6
						c0.1-0.1,0.2-0.1,0.3-0.2c-0.2-0.3-0.4-0.6-0.6-0.9c-0.6-1-1.3-1.9-1.9-2.9c-0.2-0.3-0.2-0.7,0-1.1c0.2-0.3,0.5-0.5,0.9-0.5
						c0.3,0,0.6,0.2,0.8,0.5c0.9,1.3,1.8,2.6,2.6,4c0.2,0.2,0.3,0.3,0.6,0.4c1.7,0.4,3.4,0.8,5.1,1.2c0,0,0.1,0,0.2,0
						c-0.1-2.3,0.6-4.2,2.3-5.7c1.7-1.5,3.7-1.9,6-1.5c-0.2-0.4-0.3-0.7-0.4-1.1c-0.3-0.8-0.7-1.7-1-2.5c-0.1-0.2-0.3-0.4-0.5-0.5
						c-1.3-0.8-2.7-1.5-4-2.3c-0.6-0.4-0.8-1-0.5-1.5c0.3-0.5,0.8-0.6,1.4-0.3c0.8,0.5,1.6,0.9,2.5,1.4c0.3,0.2,0.7,0.4,1,0.6
						c0.1-0.4,0.1-0.8,0.2-1.2c0.2-1.1,0.3-2.3,0.5-3.4c0.1-0.6,0.6-0.9,1.2-0.8c0.5,0.1,0.9,0.6,0.8,1.2c-0.2,1.8-0.5,3.5-0.7,5.3
						c0,0.3,0,0.6,0.1,0.8c0.4,1.2,0.9,2.3,1.4,3.4c0,0.1,0.1,0.1,0.1,0.2c1.8-1.9,4-2.8,6.6-2.2c2.6,0.6,4.2,2.2,5.1,4.7
						c0.4-0.3,0.9-0.5,1.3-0.8c0.6-0.4,1.3-0.8,1.9-1.3c0.2-0.1,0.3-0.3,0.4-0.5c0.4-1.3,0.7-2.6,1-3.8c0.2-0.8,0.8-1.2,1.5-0.9
						c0.4,0.2,0.6,0.7,0.5,1.1c-0.3,1.1-0.6,2.3-0.9,3.4c-0.1,0.2,0,0.3,0.2,0.4c1.3,0.2,2.6,0.5,3.9,0.7c0.9,0.2,1.3,0.9,0.8,1.5
						c-0.2,0.3-0.6,0.5-1,0.4c-1.6-0.3-3.3-0.6-4.9-0.9c-0.1,0-0.3,0-0.3,0c-1,0.6-2,1.3-3.1,2c0.1,0.1,0.2,0.2,0.3,0.2
						c2.1,1.3,3.1,3.2,3,5.7c0,0.3,0.1,0.4,0.3,0.4c1.3,0,2.6,0,3.9-0.1c0.2,0,0.4-0.1,0.6-0.1c1.4-0.7,2.8-1.4,4.2-2.1
						c0.6-0.3,1.1-0.1,1.4,0.4c0.3,0.5,0.1,1.1-0.5,1.4c-1,0.5-2,1-3.1,1.5c-0.1,0.1-0.2,0.1-0.4,0.2c0.3,0.3,0.5,0.5,0.7,0.7
						c0.8,0.7,1.6,1.4,2.3,2.2c0.4,0.4,0.4,1,0,1.4c-0.3,0.4-0.9,0.4-1.3,0c-0.3-0.3-0.6-0.5-0.9-0.8c-0.9-0.9-1.9-1.7-2.8-2.6
						c-0.1-0.1-0.3-0.2-0.4-0.2c-1.2,0-2.5,0-3.7,0c-0.1,0-0.2,0-0.3,0c0.8,2.4,0.4,4.7-1.2,6.7c0.5,0.3,0.9,0.6,1.4,0.8
						c0.6,0.3,1.2,0.7,1.8,1c0.2,0.1,0.3,0.1,0.5,0c1.3-0.9,2.6-1.8,3.9-2.8c0.5-0.4,1.2-0.2,1.5,0.3c0.2,0.4,0.1,0.9-0.4,1.3
						c-1,0.7-2.1,1.5-3.1,2.2c-0.2,0.2-0.5,0.4-0.7,0.5c-0.2,0.1-0.2,0.2-0.1,0.4c0.4,1.5,0.8,2.9,1.3,4.4c0.1,0.4,0,0.9-0.3,1.1
						c-0.3,0.3-0.8,0.3-1.1,0c-0.2-0.2-0.4-0.4-0.5-0.7c-0.5-1.5-0.9-3.1-1.3-4.6c0-0.2-0.2-0.3-0.3-0.4c-0.8-0.5-1.7-1-2.6-1.5
						c-0.1,0-0.2-0.1-0.3-0.1c0,0.2,0,0.3,0,0.4c0.1,0.8-0.1,1.6-0.4,2.4c-1.4,2.9-4.4,3.9-7.2,2.5c-0.2-0.1-0.3-0.1-0.5,0
						c-0.5,0.2-1.1,0.4-1.6,0.5c-0.2,0.1-0.3,0.1-0.2,0.4c0.4,1.2,0.8,2.5,1.3,3.6c0.3,0.7,0.8,1.4,1.3,2.1c0.5,0.8,1.1,1.6,1.6,2.4
						c0.3,0.5,0.1,1-0.4,1.3c-0.4,0.3-1,0.1-1.3-0.4c-0.6-0.8-1.1-1.7-1.7-2.5c0-0.1-0.1-0.1-0.2-0.2c-0.1,0.3-0.2,0.5-0.3,0.7
						c-0.4,0.9-0.8,1.8-1.2,2.8c-0.2,0.4-0.5,0.6-0.9,0.6c-0.4,0-0.8-0.3-0.9-0.7c-0.1-0.3,0-0.6,0.1-0.8c0.5-1.1,1-2.2,1.5-3.3
						c0.6-1.3,0.6-1.3,0.1-2.6c-0.2-0.7-0.5-1.3-0.8-2.1c-1.1,1.1-2.5,1.6-4,1.6c-1.5-0.1-2.8-0.8-3.8-2c-0.4,0.5-0.8,1.1-1.3,1.5
						c-0.6,0.6-0.8,1.2-0.7,2.1c0.1,1.1,0.1,2.2,0.2,3.3c0,0.5-0.3,0.9-0.8,1c-0.4,0.1-0.9-0.2-1.1-0.6c-0.1-0.1-0.1-0.3-0.1-0.5
						c-0.1-1.2-0.1-2.3-0.1-3.5c0-0.2-0.1-0.3-0.3-0.3c-1,0-2,0-2.9,0c-0.7,0-1.1-0.4-1.1-1c0-0.6,0.4-1,1.1-1c1.2,0,2.3,0,3.5,0
						c0.1,0,0.3,0,0.3-0.1c0.5-0.6,1-1.2,1.5-1.8C156.8,111,155.2,108.3,155.9,104.1z M159.5,102c-0.1,0.1-0.1,0.2-0.2,0.2
						c-0.1,0.1-0.2,0.2-0.3,0.3c-0.9,1-1.5,2.1-1.4,3.5c0,2.7,2.2,4.8,4.9,4.7c0.8,0,0.8,0,1.1,0.7c0.7,1.6,2.5,2.4,4,1.8
						c1-0.4,1.7-1.1,2-2.2c0.1-0.3,0.2-0.4,0.6-0.3c1.3,0.2,2.4-0.1,3.5-0.8c0.5-0.4,0.6-0.4,1.1,0.1c1.1,1,2.8,1.1,3.9,0.3
						c1.3-0.9,1.7-2.4,1.2-3.8c-0.2-0.4-0.4-0.7-0.6-1.1c-0.1-0.2-0.1-0.3,0.1-0.4c0.3-0.2,0.5-0.3,0.8-0.5c2.1-1.5,2.7-4.5,1.2-6.6
						c-0.2-0.3-0.2-0.5-0.1-0.9c0.8-2,0-4.2-1.9-5.2c-0.6-0.3-1.1-0.4-1.8-0.5c-0.5-0.1-0.5-0.1-0.5-0.6c0-0.6-0.1-1.3-0.2-1.8
						c-0.7-2.4-3.4-3.9-5.8-3.2c-1.7,0.5-2.8,1.6-3.4,3.3c-0.1,0.3-0.2,0.6-0.3,0.9c-0.5-0.3-0.9-0.6-1.3-0.8c-1.7-1-4-0.9-5.5,0.4
						c-1.7,1.5-2.2,3.6-1.3,5.7c0.3,0.7,0.3,0.7-0.3,1.1c-1.8,1.2-1.9,3.8-0.2,5.2C159.1,101.6,159.3,101.8,159.5,102z"/>
					<path class="st4" d="M168.7,103.4c-2.3,0-4.1-1.8-4.1-4.1c0-2.3,1.8-4.2,4.1-4.2c2.4,0,4.2,1.8,4.2,4.2
						C172.9,101.6,171,103.4,168.7,103.4z"/>
					<path class="st4" d="M172.6,105.5c0-1.4,1.1-2.5,2.5-2.5c1.4,0,2.5,1.1,2.5,2.5c0,1.4-1.1,2.6-2.5,2.6
						C173.8,108,172.6,106.9,172.6,105.5z"/>
					<path class="st4" d="M162.4,109.1c-1.5-0.1-2.8-1.4-2.7-2.9c0.1-1.5,1.4-2.7,2.9-2.6c1.5,0.1,2.7,1.4,2.7,2.8
						C165.2,108,163.9,109.2,162.4,109.1z"/>
					<path class="st4" d="M161.9,93c0-1,0.8-1.8,1.8-1.8c1,0,1.9,0.8,1.9,1.8c0,1.1-0.8,1.9-1.8,1.9C162.7,94.9,161.9,94.1,161.9,93
						z"/>
					<path class="st4" d="M176.8,92.9c1,0,1.9,0.8,1.9,1.9c0,0.9-0.9,1.8-1.8,1.8c-1,0-1.9-0.9-1.9-1.8
						C175,93.7,175.8,92.9,176.8,92.9z"/>
					<path class="st4" d="M171.3,91c0.5,0,0.9,0.4,0.9,0.9c0,0.5-0.4,0.9-0.9,0.9c-0.5,0-1-0.4-1-0.9C170.4,91.4,170.8,91,171.3,91z
						"/>
					<path class="st4" d="M168.8,106.9c0.5,0,0.9,0.4,0.9,0.9c0,0.5-0.4,0.9-0.9,0.9c-0.5,0-1-0.4-1-0.9
						C167.9,107.3,168.3,106.9,168.8,106.9z"/>
					<path class="st4" d="M162.4,97.5c0.5,0,0.9,0.4,0.9,0.9c0,0.5-0.4,0.9-0.9,0.9c-0.5,0-1-0.4-1-0.9
						C161.5,97.8,161.9,97.5,162.4,97.5z"/>
					<path class="st4" d="M178.1,99.8c0.5,0,0.9,0.4,0.9,0.9c0,0.5-0.4,0.9-0.9,0.9c-0.5,0-1-0.4-1-0.9
						C177.2,100.2,177.6,99.8,178.1,99.8z"/>
				</g>
				<g class="st3">
					<path class="st4" d="M194.7,95.2c-1.6-2.8-5.9-1.9-6.3,1.3l-3.2,0.3c-0.8-5.1-4.1-9.6-8.7-11.9l1.4-3.1
						c2.1,0.4,4.1-1.2,4.1-3.3c0-1.9-1.5-3.4-3.4-3.4c-1.9,0-3.4,1.5-3.4,3.4c0,1.1,0.5,2,1.3,2.7l-1.4,3.1
						c-1.1-0.4-2.3-0.7-3.5-0.9c-0.4-0.1-0.8,0.2-0.9,0.6c-0.1,0.4,0.2,0.8,0.6,0.9c7.1,1,12.5,7.2,12.5,14.4
						c0,10.3-10.5,17.3-20,13.4l0.4-1c0.2-0.4,0-0.8-0.4-1c-0.4-0.2-0.8,0-1,0.4l-0.4,1c-4-2.1-6.9-6.1-7.5-10.8l1-0.1
						c0.4,0,0.7-0.4,0.7-0.8c0-0.4-0.4-0.7-0.8-0.7l-1,0.1c-0.2-4.8,1.9-9.1,5.4-11.9l0.6,0.8c0.2,0.3,0.7,0.4,1.1,0.2
						c0.3-0.2,0.4-0.7,0.2-1.1l-0.6-0.8c1.9-1.2,4.1-2,6.5-2.2c0.4,0,0.7-0.4,0.7-0.8c0-0.4-0.4-0.7-0.8-0.7
						c-2.6,0.2-5.1,1.1-7.2,2.5l-2-2.8c1.4-1.6,1-4.1-0.8-5.2c-1.6-0.9-3.7-0.4-4.6,1.2c-1.6,2.8,1.2,6,4.2,4.8l2,2.8
						c-4,3.2-6.3,8-6.1,13.2l-3.3,0.4c-1-3.2-5.6-3.1-6.5,0.2c-0.8,2.9,2.4,5.3,4.9,3.8c0.9-0.5,1.5-1.4,1.7-2.5l3.3-0.4
						c0.7,5.2,3.9,9.6,8.4,12l-1.3,2.9c-0.2,0-0.4-0.1-0.6-0.1c-1.9,0-3.4,1.5-3.4,3.4c0,1.9,1.5,3.4,3.4,3.4c1.9,0,3.4-1.5,3.4-3.4
						c0-1.1-0.5-2.1-1.4-2.7l1.3-2.9c1.9,0.8,3.9,1.2,6.1,1.2c3.2,0,6.2-0.9,8.7-2.6l1.8,2.5c-0.7,0.8-1,2-0.7,3.1
						c0.8,2.9,4.7,3.4,6.2,0.8c1.6-2.8-1.3-6-4.2-4.8l-1.8-2.5c4-3.2,6.4-8.2,6.1-13.6l3.2-0.3c0.5,1.4,1.8,2.3,3.2,2.3
						C194.4,100.3,196,97.4,194.7,95.2z M178.6,76.7c1,0,1.9,0.8,1.9,1.9c0,1-0.8,1.9-1.9,1.9s-1.9-0.8-1.9-1.9
						C176.7,77.6,177.6,76.7,178.6,76.7z M155.2,82.4c-0.9-0.5-1.2-1.6-0.7-2.5c0.5-0.9,1.6-1.2,2.5-0.7c0.9,0.5,1.2,1.6,0.7,2.5
						C157.3,82.7,156.1,83,155.2,82.4z M147.8,103c-0.9,0.5-2,0.2-2.5-0.7c-0.7-1.2,0.2-2.8,1.6-2.8
						C148.8,99.5,149.4,102.1,147.8,103z M160,121.6c-1,0-1.9-0.8-1.9-1.9c0-1,0.8-1.9,1.9-1.9c1,0,1.9,0.8,1.9,1.9
						C161.9,120.7,161.1,121.6,160,121.6z M182.5,115.6c1.4,0,2.3,1.6,1.6,2.8c-0.5,0.9-1.6,1.2-2.5,0.7
						C179.9,118.1,180.6,115.6,182.5,115.6z M192.7,98.5c-0.9,0.5-2,0.2-2.5-0.7c-0.7-1.2,0.2-2.8,1.6-2.8
						C193.6,95,194.3,97.6,192.7,98.5z"/>
					<path class="st4" d="M167.6,103.2c-1.8,0-3.3,1.5-3.3,3.3s1.5,3.3,3.3,3.3c1.8,0,3.3-1.5,3.3-3.3S169.5,103.2,167.6,103.2z
						 M167.6,108.4c-1,0-1.8-0.8-1.8-1.8s0.8-1.8,1.8-1.8c1,0,1.8,0.8,1.8,1.8S168.6,108.4,167.6,108.4z"/>
					<path class="st4" d="M174.8,98.8c-1.2,0-2.2,1-2.2,2.2c0,1.2,1,2.2,2.2,2.2c1.2,0,2.2-1,2.2-2.2C177,99.8,176,98.8,174.8,98.8z
						 M174.8,101.7c-0.4,0-0.7-0.3-0.7-0.7c0-0.4,0.3-0.7,0.7-0.7c0.4,0,0.7,0.3,0.7,0.7C175.4,101.4,175.1,101.7,174.8,101.7z"/>
					<path class="st4" d="M159.3,100.1c0,1.1,0.9,2,2,2s2-0.9,2-2c0-1.1-0.9-2-2-2C160.2,98.1,159.3,99,159.3,100.1z M161.8,100.1
						c0,0.3-0.2,0.5-0.5,0.5s-0.5-0.2-0.5-0.5c0-0.3,0.2-0.5,0.5-0.5S161.8,99.8,161.8,100.1z"/>
					<path class="st4" d="M175,90.8c-1.3,0-2.4,1.1-2.4,2.4s1.1,2.4,2.4,2.4s2.4-1.1,2.4-2.4S176.3,90.8,175,90.8z M175,94.2
						c-0.5,0-0.9-0.4-0.9-0.9c0-0.5,0.4-0.9,0.9-0.9c0.5,0,0.9,0.4,0.9,0.9C175.9,93.8,175.5,94.2,175,94.2z"/>
					<path class="st4" d="M175.1,105.1l-0.5,0.5c-0.3,0.3-0.3,0.8,0,1.1c0.3,0.3,0.8,0.3,1.1,0l0.5-0.5c0.3-0.3,0.3-0.8,0-1.1
						S175.3,104.8,175.1,105.1z"/>
					<path class="st4" d="M169.2,99.9l0.5,0.5c0.3,0.3,0.8,0.3,1.1-0.1c0.3-0.3,0.3-0.8-0.1-1.1l-0.5-0.5c-0.3-0.3-0.8-0.3-1.1,0.1
						C168.9,99.1,168.9,99.6,169.2,99.9z"/>
					<path class="st4" d="M162.7,94.5c0,3.4,4.3,5,6.5,2.4c0.3-0.3,0.2-0.8-0.1-1.1c-0.3-0.3-0.8-0.2-1.1,0.1
						c-1.3,1.5-3.8,0.6-3.8-1.4c0-2.1,2.7-3,3.9-1.2c0.2,0.3,0.7,0.4,1.1,0.2c0.3-0.2,0.4-0.7,0.2-1.1
						C167.3,89.5,162.7,90.9,162.7,94.5z"/>
				</g>
				<g id="o1M6Fw.tif_2_">
					<g>
						<path class="st0" d="M162.8,112.5c-1,1.1-1.9,2.3-2.8,3.4c-0.1,0.1-0.1,0.3-0.1,0.4c0.1,1.5,0.1,2.9,0.2,4.4
							c0,0.3-0.1,0.5-0.4,0.7c-0.4,0.2-0.7-0.1-0.8-0.5c0-0.6-0.1-1.3-0.1-1.9c0-0.7-0.1-1.5-0.1-2.2c0-0.1,0-0.2,0-0.3
							c-0.1,0-0.2,0-0.4,0c-1.1,0-2.2,0-3.4,0c-0.2,0-0.4-0.1-0.6-0.2c-0.1-0.1-0.1-0.4-0.1-0.6c0.1-0.2,0.3-0.3,0.5-0.3
							c0.9,0,1.8,0,2.6,0c0.1,0,0.2,0,0.3,0c0.8,0.2,1.4-0.2,1.9-0.9c0.6-0.8,1.2-1.5,1.9-2.3c-2.1-0.3-3.7-1.3-4.7-3.2
							c-0.9-1.9-0.9-3.7,0.1-5.6c-0.6,0.2-1.2,0.5-1.8,0.7c-1.5,0.6-3,1.1-4.4,1.7c-0.1,0.1-0.3,0.2-0.3,0.3c-0.5,1.5-0.9,3-1.4,4.5
							c0,0.1-0.1,0.3-0.1,0.4c-0.1,0.2-0.4,0.4-0.6,0.3c-0.3-0.1-0.5-0.3-0.4-0.6c0.1-0.3,0.2-0.6,0.2-0.9c0.4-1.3,0.8-2.7,1.2-4.1
							c-0.3-0.1-0.7-0.3-1-0.4c-1.2-0.5-2.5-1-3.7-1.6c-0.4-0.2-0.5-0.5-0.4-0.8c0.1-0.3,0.5-0.4,0.8-0.2c1.6,0.7,3.1,1.3,4.7,2
							c0.1,0,0.3,0.1,0.4,0c2.3-0.9,4.6-1.7,7-2.6c0,0,0.1,0,0.1,0c-1.6-2.2-1.4-4.3,0.5-6.3c-0.6-0.1-1.2-0.3-1.8-0.4
							c-1.8-0.4-3.5-0.8-5.3-1.2c-0.3-0.1-0.5,0-0.8,0.1c-1.2,0.7-2.5,1.4-3.7,2.1c-0.3,0.2-0.5,0.2-0.8,0c-0.3-0.3-0.2-0.7,0.2-0.9
							c1.1-0.6,2.2-1.2,3.3-1.8c0.1-0.1,0.3-0.1,0.4-0.2c-0.2-0.4-0.5-0.7-0.7-1.1c-0.7-1-1.4-2-2-3.1c-0.2-0.3-0.2-0.6,0-0.8
							c0.3-0.3,0.7-0.2,0.9,0.1c0.6,0.9,1.2,1.9,1.8,2.8c0.3,0.5,0.7,1,1,1.5c0.1,0.1,0.2,0.2,0.3,0.2c2.3,0.5,4.6,1.1,7,1.6
							c-0.4-2.4,0.2-4.4,2.2-5.9c1.9-1.5,4-1.6,6.3-0.6c-0.1-0.3-0.2-0.5-0.3-0.7c-0.7-1.6-1.3-3.2-2-4.8c-0.1-0.1-0.2-0.3-0.3-0.3
							c-1.4-0.8-2.9-1.7-4.4-2.5c0,0-0.1-0.1-0.1-0.1c-0.3-0.2-0.4-0.5-0.2-0.8c0.2-0.3,0.5-0.3,0.8-0.2c0.7,0.4,1.3,0.8,2,1.1
							c0.7,0.4,1.4,0.8,2.1,1.2c0-0.1,0.1-0.2,0.1-0.3c0.2-1.6,0.4-3.2,0.7-4.9c0-0.1,0-0.3,0.1-0.4c0.1-0.3,0.4-0.4,0.7-0.3
							c0.3,0.1,0.4,0.3,0.4,0.6c-0.1,0.6-0.2,1.3-0.3,1.9c-0.2,1.3-0.4,2.6-0.5,4c0,0.1,0,0.2,0,0.3c0.7,1.8,1.5,3.6,2.2,5.4
							c0,0,0,0,0,0.1c1.6-2.3,3.8-3.4,6.6-2.7c2.4,0.6,3.8,2.3,4.3,4.8c0.1,0,0.1-0.1,0.2-0.1c1.4-0.9,2.8-1.8,4.2-2.8
							c0.1-0.1,0.3-0.3,0.3-0.4c0.4-1.4,0.7-2.7,1.1-4.1c0-0.1,0-0.2,0.1-0.2c0.1-0.3,0.4-0.5,0.7-0.4c0.3,0.1,0.5,0.4,0.4,0.7
							c-0.3,1-0.6,2.1-0.8,3.1c-0.1,0.4-0.2,0.7-0.3,1.1c0.2,0,0.4,0.1,0.6,0.1c1.4,0.3,2.8,0.5,4.2,0.8c0.2,0,0.5,0.2,0.5,0.4
							c0.2,0.4-0.2,0.8-0.7,0.7c-0.8-0.1-1.6-0.3-2.4-0.4c-0.9-0.2-1.8-0.3-2.7-0.5c-0.1,0-0.3,0-0.4,0.1c-1.5,0.9-2.9,1.9-4.4,2.8
							c0,0-0.1,0.1-0.1,0.1c1.4,0.4,2.4,1.2,3.2,2.4c0.7,1.2,0.9,2.5,0.6,3.9c0.1,0,0.3,0,0.4,0c1.8,0,3.5,0,5.3-0.1
							c0.2,0,0.4-0.1,0.6-0.2c1.4-0.7,2.9-1.4,4.3-2.1c0.2-0.1,0.5-0.1,0.7,0c0.2,0.2,0.3,0.4,0.1,0.6c-0.1,0.2-0.2,0.3-0.4,0.4
							c-1.2,0.6-2.5,1.2-3.7,1.8c-0.1,0-0.2,0.1-0.4,0.2c0.1,0.1,0.3,0.2,0.4,0.3c1,1,2.1,1.9,3.1,2.9c0.3,0.3,0.4,0.6,0.1,0.9
							c-0.2,0.2-0.6,0.2-0.9-0.1c-1.2-1.1-2.5-2.3-3.7-3.4c-0.2-0.2-0.3-0.2-0.5-0.2c-1.7,0-3.3,0-5,0.1c-0.1,0-0.3,0-0.4,0
							c1.2,2.6,0.8,5-1.1,7.1c0.3,0.2,0.6,0.4,0.9,0.5c1.2,0.7,2.3,1.4,3.5,2c0.2,0.1,0.3,0.1,0.5,0c1.3-1,2.7-1.9,4-2.9
							c0.1-0.1,0.2-0.1,0.2-0.2c0.3-0.2,0.6-0.1,0.8,0.1c0.2,0.2,0.1,0.6-0.2,0.8c-0.7,0.5-1.4,1.1-2.2,1.6c-0.7,0.5-1.3,1-2,1.4
							c-0.2,0.1-0.2,0.2-0.2,0.5c0.5,1.6,0.9,3.1,1.4,4.7c0.1,0.2,0.1,0.5-0.1,0.7c-0.3,0.3-0.8,0.2-0.9-0.3
							c-0.2-0.8-0.5-1.7-0.7-2.5c-0.2-0.8-0.5-1.6-0.7-2.4c0-0.1-0.1-0.3-0.2-0.3c-1.5-0.9-3.1-1.8-4.6-2.7c0,0-0.1,0-0.2-0.1
							c0.1,0.2,0.1,0.3,0.2,0.4c0.8,1.8,0.3,3.8-1.2,5c-1.4,1.2-3.6,1.3-5.1,0.2c-0.2-0.2-0.4-0.2-0.7,0c-0.7,0.4-1.5,0.7-2.4,0.8
							c-0.1,0-0.2,0-0.3,0c0,0.1,0,0.2,0.1,0.2c0.6,1.6,1.1,3.3,1.8,4.9c0.2,0.6,0.7,1.1,1,1.7c0.6,0.9,1.2,1.8,1.8,2.7
							c0.2,0.4,0.2,0.6-0.1,0.8c-0.3,0.2-0.6,0.1-0.8-0.2c-0.7-1-1.4-2-2-3c-0.1-0.1-0.2-0.2-0.3-0.4c-0.1,0.2-0.1,0.3-0.2,0.4
							c-0.6,1.3-1.1,2.5-1.7,3.8c-0.2,0.4-0.6,0.5-0.9,0.3c-0.2-0.2-0.3-0.4-0.2-0.7c0.5-1.2,1.1-2.5,1.7-3.7
							c0.2-0.4,0.3-0.7,0.5-1.1c0-0.1,0-0.2,0-0.3c-0.6-1.6-1.1-3.1-1.7-4.7c0,0,0,0-0.1-0.1c-0.9,1.3-2.1,2.1-3.7,2.1
							C164.9,114.6,163.7,113.8,162.8,112.5z M171.7,103.7c1.5,0,2.7-1.2,2.7-2.7c0-1.5-1.2-2.7-2.8-2.7c-1.5,0-2.7,1.2-2.7,2.7
							C169,102.4,170.2,103.7,171.7,103.7z M172.4,90.2c1.2,0,2.2-1,2.2-2.1c0-1.3-1-2.2-2.2-2.2c-1.2,0-2.2,0.9-2.2,2.1
							C170.2,89.2,171.2,90.2,172.4,90.2z M159,108.1c0,1.2,0.9,2.2,2,2.3c1.2,0,2.2-0.9,2.2-2.1c0-1.2-0.9-2.2-2.1-2.2
							C160.2,106,159,106.9,159,108.1z M172.6,107.8c0-1-0.8-1.8-1.8-1.8c-1,0-1.8,0.8-1.8,1.7c0,1,0.8,1.9,1.8,1.9
							C171.8,109.5,172.6,108.8,172.6,107.8z M159.4,98.6c0,1,0.8,1.8,1.8,1.8c1,0,1.8-0.8,1.8-1.8c0-1-0.8-1.8-1.8-1.8
							C160.2,96.8,159.4,97.6,159.4,98.6z M163,93.3c0.8,0,1.5-0.6,1.5-1.4c0-0.8-0.6-1.5-1.5-1.5c-0.8,0-1.5,0.7-1.5,1.5
							C161.5,92.6,162.2,93.3,163,93.3z M182.3,99.5c0-0.8-0.6-1.5-1.4-1.5c-0.8,0-1.5,0.6-1.5,1.5c0,0.8,0.6,1.5,1.4,1.5
							C181.6,101,182.3,100.3,182.3,99.5z M175.5,108.2c0,0.8,0.7,1.5,1.5,1.5c0.8,0,1.5-0.7,1.5-1.5c0-0.8-0.7-1.5-1.5-1.4
							C176.1,106.7,175.5,107.4,175.5,108.2z M177.1,95.7c0.8,0,1.5-0.6,1.5-1.5c0-0.8-0.6-1.4-1.4-1.4c-0.8,0-1.5,0.6-1.5,1.4
							C175.6,95,176.3,95.7,177.1,95.7z M168.2,111.9c0-0.8-0.7-1.5-1.5-1.5c-0.8,0-1.5,0.7-1.5,1.5c0,0.8,0.6,1.4,1.4,1.4
							C167.5,113.4,168.2,112.8,168.2,111.9z M165.2,104.2c0.5,0,1-0.4,1-1c0-0.5-0.4-1-1-1c-0.5,0-1,0.4-1,0.9
							C164.3,103.7,164.7,104.2,165.2,104.2z M170.5,93.7c0-0.5-0.4-1-0.9-1c-0.5,0-1,0.4-1,1c0,0.5,0.4,1,1,0.9
							C170,94.6,170.5,94.2,170.5,93.7z"/>
					</g>
				</g>
			</g>
		</g>
	</g>
</g>
</svg>
